<svg xmlns="http://www.w3.org/2000/svg" width="23.506" height="22.893" viewBox="0 0 23.506 22.893">
  <g id="Gruppe_10730" data-name="Gruppe 10730" transform="translate(-394.965 -5116.35)">
    <path d="M20.451,11.524c-2.641.208-9.837.675-9.837.675a3.936,3.936,0,0,0,.259-1.35c0-1.038-.052-8.877-.052-8.877A3.761,3.761,0,0,1,11.235,0H6.368S1.45,0,1.191,4.309C.88,8.669,0,20.816,0,20.816a8.99,8.99,0,0,1,1.812-.623A4.529,4.529,0,0,1,2.9,20.141c3.21-.052,12.271,0,13.306,0a5.112,5.112,0,0,0,5.54-5.087c.052-1.09.155-2.492.207-4.049A3.028,3.028,0,0,1,20.451,11.524Z" transform="translate(394.965 5118.426)" fill="#80c342"/>
    <path data-name="Shape" d="M10.044,1.246c0,1.038.1,6.074,0,7.164-.052.415,0,2.492-2.123,2.647C5.747,11.213,0,11.628,0,11.628a2.123,2.123,0,0,0,.155-.986V3.374A2.544,2.544,0,0,1,2.692.571C5.851.363,10.251,0,10.251,0A7.36,7.36,0,0,0,10.044,1.246Z" transform="translate(408.219 5116.35)" fill="#00a44d"/>
  </g>
</svg>
